<?xml version="1.0" encoding="UTF-8" standalone="no"?>
<!-- Created with Inkscape (http://www.inkscape.org/) -->

<svg
   xmlns:dc="http://purl.org/dc/elements/1.1/"
   xmlns:cc="http://creativecommons.org/ns#"
   xmlns:rdf="http://www.w3.org/1999/02/22-rdf-syntax-ns#"
   xmlns:svg="http://www.w3.org/2000/svg"
   xmlns="http://www.w3.org/2000/svg"
   xmlns:xlink="http://www.w3.org/1999/xlink"
   xmlns:sodipodi="http://sodipodi.sourceforge.net/DTD/sodipodi-0.dtd"
   xmlns:inkscape="http://www.inkscape.org/namespaces/inkscape"
   width="32"
   height="32"
   id="svg2"
   version="1.1"
   inkscape:version="0.48.4 r9939"
   sodipodi:docname="snowflake.svg"
   inkscape:export-filename="C:\Users\epearson\Documents\GitHub\snowflake-drift\assets\images\snowflake.png"
   inkscape:export-xdpi="90"
   inkscape:export-ydpi="90">
  <defs
     id="defs4" />
  <sodipodi:namedview
     id="base"
     pagecolor="#ffffff"
     bordercolor="#666666"
     borderopacity="1.0"
     inkscape:pageopacity="0.0"
     inkscape:pageshadow="2"
     inkscape:zoom="11.2"
     inkscape:cx="8.8886087"
     inkscape:cy="19.840363"
     inkscape:document-units="px"
     inkscape:current-layer="layer1"
     showgrid="true"
     inkscape:snap-grids="false"
     inkscape:snap-nodes="false"
     inkscape:object-paths="true"
     inkscape:window-width="1034"
     inkscape:window-height="734"
     inkscape:window-x="85"
     inkscape:window-y="163"
     inkscape:window-maximized="0">
    <inkscape:grid
       type="xygrid"
       id="grid2985"
       empspacing="4"
       visible="true"
       enabled="true"
       snapvisiblegridlinesonly="true"
       dotted="false" />
  </sodipodi:namedview>
  <metadata
     id="metadata7">
    <rdf:RDF>
      <cc:Work
         rdf:about="">
        <dc:format>image/svg+xml</dc:format>
        <dc:type
           rdf:resource="http://purl.org/dc/dcmitype/StillImage" />
        <dc:title></dc:title>
      </cc:Work>
    </rdf:RDF>
  </metadata>
  <g
     inkscape:label="Layer 1"
     inkscape:groupmode="layer"
     id="layer1"
     transform="translate(0,-1020.3622)">
    <path
       sodipodi:type="inkscape:offset"
       inkscape:radius="0.35714287"
       inkscape:original="M 15.5625 1020.375 L 15.5625 1022.2812 L 14.3125 1021.0938 L 13.625 1021.8125 L 15.5625 1023.625 L 15.5625 1024.8438 L 12.46875 1022.5938 L 11.875 1023.4062 L 15.5625 1026.0938 L 15.5625 1031.2812 L 12.34375 1028.9062 L 12.09375 1029.25 L 11.4375 1029.3125 L 11.84375 1033.25 L 7.375 1030.5938 L 6.84375 1026.4688 L 5.875 1026.625 L 6.3125 1029.9688 L 5.21875 1029.3125 L 4.78125 1026.9062 L 3.8125 1027.0625 L 4.09375 1028.6562 L 2.46875 1027.6875 L 1.96875 1028.5625 L 3.5625 1029.5312 L 1.96875 1029.9688 L 2.21875 1030.9375 L 4.75 1030.2188 L 5.8125 1030.8438 L 2.3125 1032.3438 L 2.71875 1033.2812 L 6.875 1031.4688 L 11.34375 1034.125 L 7.65625 1035.6562 L 7.90625 1036.25 L 7.5625 1037.0938 L 11.1875 1038.6562 L 6.75 1041.2812 L 2.875 1039.7812 L 2.5 1040.7188 L 5.65625 1041.9062 L 4.5625 1042.5625 L 2.25 1041.7812 L 1.9375 1042.7188 L 3.4375 1043.25 L 1.84375 1044.1875 L 2.34375 1045.0625 L 3.96875 1044.0938 L 3.59375 1045.75 L 4.5625 1045.9688 L 5.15625 1043.375 L 6.1875 1042.75 L 5.84375 1046.5625 L 6.84375 1046.6562 L 7.25 1042.125 L 11.75 1039.4688 L 11.34375 1043.4688 L 12.0625 1043.5312 L 12.28125 1043.8438 L 15.5 1041.4688 L 15.5 1046.625 L 11.8125 1049.3125 L 12.40625 1050.125 L 15.5 1047.875 L 15.5 1049.125 L 13.59375 1050.9375 L 14.28125 1051.6562 L 15.5 1050.5 L 15.5 1052.375 L 16.5 1052.375 L 16.5 1050.5 L 17.71875 1051.5312 L 18.375 1050.7812 L 16.5 1049.1875 L 16.5 1047.9375 L 19.15625 1050 L 19.78125 1049.2188 L 16.5 1046.6562 L 16.5 1041.4688 L 19.6875 1043.8438 L 20.03125 1043.375 L 20.46875 1043.3438 L 20.0625 1039.3438 L 24.5625 1042 L 24.96875 1046.5312 L 25.96875 1046.4375 L 25.625 1042.625 L 26.65625 1043.25 L 27.25 1045.8438 L 28.21875 1045.625 L 27.84375 1043.9688 L 29.46875 1044.9375 L 29.96875 1044.0625 L 28.375 1043.125 L 29.875 1042.5938 L 29.5625 1041.6562 L 27.25 1042.4375 L 26.15625 1041.7812 L 29.3125 1040.5938 L 28.9375 1039.6562 L 25.0625 1041.1562 L 20.625 1038.5312 L 24.25 1036.9688 L 23.9375 1036.25 L 24.15625 1035.7812 L 20.46875 1034.25 L 24.9375 1031.5938 L 29.09375 1033.375 L 29.5 1032.4688 L 25.96875 1030.9688 L 27.03125 1030.3438 L 29.59375 1031.0625 L 29.84375 1030.0938 L 28.25 1029.6562 L 29.84375 1028.6875 L 29.34375 1027.8125 L 27.71875 1028.7812 L 28 1027.1875 L 27.03125 1027.0312 L 26.59375 1029.4375 L 25.5 1030.0938 L 25.9375 1026.75 L 24.96875 1026.5938 L 24.4375 1030.7188 L 19.96875 1033.375 L 20.375 1029.4375 L 20.09375 1029.4062 L 19.71875 1028.9062 L 16.5625 1031.25 L 16.5625 1026.0625 L 19.8125 1023.5 L 19.1875 1022.7188 L 16.5625 1024.7812 L 16.5625 1023.5312 L 18.40625 1021.9688 L 17.75 1021.1875 L 16.5625 1022.2188 L 16.5625 1020.375 L 15.5625 1020.375 z M 12.5625 1030.3125 L 15.5625 1032.5312 L 15.5625 1035.4688 L 12.90625 1033.875 L 12.5625 1030.3125 z M 19.25 1030.5 L 18.90625 1034 L 16.5625 1035.375 L 16.5625 1032.5 L 19.25 1030.5 z M 12.40625 1034.7812 L 15.0625 1036.3438 L 12.28125 1038 L 8.5 1036.4062 L 12.40625 1034.7812 z M 19.40625 1034.875 L 23.03125 1036.4062 L 19.53125 1037.875 L 16.9375 1036.3438 L 19.40625 1034.875 z M 15.5 1037.25 L 15.5 1040.2188 L 12.4375 1042.5 L 12.8125 1038.8438 L 15.5 1037.25 z M 16.5 1037.25 L 19 1038.7188 L 19.375 1042.375 L 16.5 1040.2188 L 16.5 1037.25 z "
       xlink:href="#path2989"
       style="font-size:medium;font-style:normal;font-variant:normal;font-weight:normal;font-stretch:normal;text-indent:0;text-align:start;text-decoration:none;line-height:normal;letter-spacing:normal;word-spacing:normal;text-transform:none;direction:ltr;block-progression:tb;writing-mode:lr-tb;text-anchor:start;baseline-shift:baseline;color:#000000;fill:#000000;fill-opacity:1;stroke:none;stroke-width:1px;marker:none;visibility:visible;display:inline;overflow:visible;enable-background:accumulate;font-family:Sans;-inkscape-font-specification:Sans"
       id="path3292"
       inkscape:href="#path2989"
       d="m 15.4375,1020.0312 a 0.35717858,0.35717858 0 0 0 -0.21875,0.3438 l 0,1.0938 -0.65625,-0.625 a 0.35717858,0.35717858 0 0 0 -0.5,0 l -0.6875,0.7187 a 0.35717858,0.35717858 0 0 0 0,0.5 l 1.84375,1.7187 0,0.375 -2.53125,-1.8437 a 0.35717858,0.35717858 0 0 0 -0.5,0.062 l -0.59375,0.8125 a 0.35717858,0.35717858 0 0 0 0.0625,0.5 l 3.5625,2.5937 0,4.3126 -2.65625,-1.9688 a 0.35717858,0.35717858 0 0 0 -0.5,0.062 l -0.15625,0.25 -0.5,0.031 a 0.35717858,0.35717858 0 0 0 -0.3125,0.375 l 0.34375,3.25 -3.75,-2.25 -0.5,-3.9063 a 0.35717858,0.35717858 0 0 0 -0.40625,-0.3125 l -0.96875,0.1562 a 0.35717858,0.35717858 0 0 0 -0.21875,0.125 0.35717858,0.35717858 0 0 0 -0.0625,0.25 l 0.34375,2.625 -0.34375,-0.2187 -0.40625,-2.2187 a 0.35717858,0.35717858 0 0 0 -0.40625,-0.2813 L 3.75,1026.7188 a 0.35717858,0.35717858 0 0 0 -0.21875,0.125 0.35717858,0.35717858 0 0 0 -0.0625,0.2812 l 0.15625,0.8125 -0.96875,-0.5625 a 0.35717858,0.35717858 0 0 0 -0.46875,0.094 0.35717858,0.35717858 0 0 0 -0.03125,0.031 l -0.5,0.875 a 0.35717858,0.35717858 0 0 0 0.125,0.5 l 0.875,0.5312 -0.78125,0.2188 a 0.35717858,0.35717858 0 0 0 -0.25,0.4375 l 0.25,0.9687 a 0.35717858,0.35717858 0 0 0 0.4375,0.25 l 2.375,-0.6874 L 5,1030.7812 2.15625,1032 A 0.35717858,0.35717858 0 0 0 2,1032.5 l 0.40625,0.9375 a 0.35717858,0.35717858 0 0 0 0.03125,0.062 0.35717858,0.35717858 0 0 0 0.4375,0.094 l 3.96875,-1.7188 3.6875,2.1875 -3,1.25 a 0.35717858,0.35717858 0 0 0 -0.21875,0.4687 l 0.1875,0.4688 -0.28125,0.7188 a 0.35717858,0.35717858 0 0 0 0.0625,0.3437 0.35717858,0.35717858 0 0 0 0.125,0.094 l 3,1.2813 -3.6875,2.1875 L 3,1039.4375 a 0.35717858,0.35717858 0 0 0 -0.46875,0.2187 l -0.375,0.9376 a 0.35717858,0.35717858 0 0 0 0.21875,0.4687 l 2.4375,0.9063 -0.28125,0.1874 -2.15625,-0.7187 a 0.35717858,0.35717858 0 0 0 -0.46875,0.2187 l -0.3125,0.9376 a 0.35717858,0.35717858 0 0 0 0.21875,0.4687 l 0.75,0.2813 -0.90625,0.5312 a 0.35717858,0.35717858 0 0 0 -0.125,0.5 l 0.5,0.875 a 0.35717858,0.35717858 0 0 0 0.5,0.125 l 0.90625,-0.5312 -0.1875,0.8124 a 0.35717858,0.35717858 0 0 0 0.25,0.4376 l 0.96875,0.2187 a 0.35717858,0.35717858 0 0 0 0.4375,-0.25 l 0.5625,-2.4375 0.3125,-0.1875 -0.28125,3.0937 a 0.35717858,0.35717858 0 0 0 0.0625,0.25 0.35717858,0.35717858 0 0 0 0.25,0.125 l 1,0.094 a 0.35717858,0.35717858 0 0 0 0.25,-0.062 0.35717858,0.35717858 0 0 0 0.125,-0.25 l 0.375,-4.3437 3.78125,-2.2188 L 11,1043.4375 a 0.35717858,0.35717858 0 0 0 0.3125,0.375 l 0.53125,0.062 0.15625,0.1875 a 0.35717858,0.35717858 0 0 0 0.5,0.062 l 2.65625,-1.9688 0,4.2813 -3.5625,2.5937 a 0.35717858,0.35717858 0 0 0 -0.0625,0.5 l 0.59375,0.8126 a 0.35717858,0.35717858 0 0 0 0.5,0.062 l 2.53125,-1.8437 0,0.4063 -1.8125,1.7187 a 0.35717858,0.35717858 0 0 0 -0.03125,0.031 0.35717858,0.35717858 0 0 0 0.03125,0.4687 l 0.6875,0.7187 a 0.35717858,0.35717858 0 0 0 0.03125,0.031 0.35717858,0.35717858 0 0 0 0.46875,-0.031 l 0.625,-0.5937 0,1.0625 a 0.35717858,0.35717858 0 0 0 0.34375,0.3438 l 1,0 a 0.35717858,0.35717858 0 0 0 0.34375,-0.3438 l 0,-1.125 0.65625,0.5625 a 0.35717858,0.35717858 0 0 0 0.5,-0.031 l 0.65625,-0.75 a 0.35717858,0.35717858 0 0 0 -0.0625,-0.5312 l -1.75,-1.5 0,-0.3438 2.09375,1.625 a 0.35717858,0.35717858 0 0 0 0.5,-0.062 l 0.625,-0.7813 a 0.35717858,0.35717858 0 0 0 -0.0625,-0.5 l -3.15625,-2.4687 0,-4.3126 2.625,1.9688 a 0.35717858,0.35717858 0 0 0 0.5,-0.062 l 0.25,-0.3437 0.28125,-0.031 a 0.35717858,0.35717858 0 0 0 0.3125,-0.375 L 20.46875,1040 l 3.78125,2.2188 0.375,4.3437 A 0.35717858,0.35717858 0 0 0 25,1046.875 l 1,-0.094 a 0.35717858,0.35717858 0 0 0 0.3125,-0.375 l -0.28125,-3.0937 0.3125,0.1875 0.5625,2.4375 a 0.35717858,0.35717858 0 0 0 0.4375,0.25 l 0.96875,-0.2187 a 0.35717858,0.35717858 0 0 0 0.25,-0.4376 l -0.1875,-0.8124 0.90625,0.5312 a 0.35717858,0.35717858 0 0 0 0.46875,-0.094 0.35717858,0.35717858 0 0 0 0.03125,-0.031 l 0.5,-0.875 a 0.35717858,0.35717858 0 0 0 -0.125,-0.5 L 29.25,1043.2188 30,1042.9375 a 0.35717858,0.35717858 0 0 0 0.21875,-0.4687 l -0.3125,-0.9376 a 0.35717858,0.35717858 0 0 0 -0.46875,-0.2187 l -2.15625,0.7187 -0.28125,-0.1874 2.4375,-0.9063 a 0.35717858,0.35717858 0 0 0 0.15625,-0.125 0.35717858,0.35717858 0 0 0 0.0625,-0.3437 l -0.375,-0.9376 a 0.35717858,0.35717858 0 0 0 -0.46875,-0.2187 l -3.71875,1.4375 -3.6875,-2.1875 3,-1.2813 a 0.35717858,0.35717858 0 0 0 0.0625,-0.031 0.35717858,0.35717858 0 0 0 0.09375,-0.4375 l -0.25,-0.5625 0.15625,-0.3125 A 0.35717858,0.35717858 0 0 0 24.375,1035.5 a 0.35717858,0.35717858 0 0 0 -0.09375,-0.062 l -3,-1.25 3.65625,-2.1875 4,1.7188 a 0.35717858,0.35717858 0 0 0 0.46875,-0.1876 l 0.40625,-0.9062 a 0.35717858,0.35717858 0 0 0 -0.1875,-0.5 l -2.84375,-1.2188 0.3125,-0.1874 2.40625,0.6874 a 0.35717858,0.35717858 0 0 0 0.4375,-0.25 l 0.25,-0.9687 a 0.35717858,0.35717858 0 0 0 -0.25,-0.4375 l -0.78125,-0.2188 0.875,-0.5312 a 0.35717858,0.35717858 0 0 0 0.125,-0.5 l -0.5,-0.875 a 0.35717858,0.35717858 0 0 0 -0.5,-0.125 l -0.96875,0.5625 0.15625,-0.8125 a 0.35717858,0.35717858 0 0 0 -0.28125,-0.4062 l -0.96875,-0.1563 a 0.35717858,0.35717858 0 0 0 -0.40625,0.2813 l -0.40625,2.2187 -0.34375,0.2187 0.34375,-2.625 A 0.35717858,0.35717858 0 0 0 26,1026.4062 l -0.96875,-0.1562 a 0.35717858,0.35717858 0 0 0 -0.40625,0.3125 l -0.5,3.9063 -3.75,2.25 0.34375,-3.25 a 0.35717858,0.35717858 0 0 0 -0.3125,-0.375 l -0.125,0 L 20,1028.6875 a 0.35717858,0.35717858 0 0 0 -0.5,-0.062 l -2.59375,1.9375 0,-4.3125 3.125,-2.4688 a 0.35717858,0.35717858 0 0 0 0.0625,-0.5 l -0.625,-0.7812 a 0.35717858,0.35717858 0 0 0 -0.5,-0.062 l -2.0625,1.625 0,-0.3437 1.71875,-1.4688 a 0.35717858,0.35717858 0 0 0 0.0625,-0.5 l -0.65625,-0.7812 a 0.35717858,0.35717858 0 0 0 -0.5,-0.063 l -0.625,0.5313 0,-1.0625 a 0.35717858,0.35717858 0 0 0 -0.34375,-0.3438 l -1,0 a 0.35717858,0.35717858 0 0 0 -0.125,0 z m -2.46875,11.0313 2.25,1.6563 0,2.125 -2,-1.1876 -0.25,-2.5937 z m 5.875,0.1875 -0.25,2.5312 -1.6875,0.9688 0,-2.0625 1.9375,-1.4375 z m -6.46875,3.9375 1.96875,1.1563 -2.09375,1.25 -2.8125,-1.1876 2.9375,-1.2187 z m 7.0625,0.094 2.65625,1.125 -2.53125,1.0626 -1.90625,-1.125 1.78125,-1.0626 z m -4.28125,2.5938 0,2.1562 -2.28125,1.7188 0.25,-2.6875 2.03125,-1.1875 z m 1.6875,0 1.84375,1.0625 0.25,2.6875 -2.09375,-1.5938 0,-2.1562 z" />
    <path
       style="font-size:medium;font-style:normal;font-variant:normal;font-weight:normal;font-stretch:normal;text-indent:0;text-align:start;text-decoration:none;line-height:normal;letter-spacing:normal;word-spacing:normal;text-transform:none;direction:ltr;block-progression:tb;writing-mode:lr-tb;text-anchor:start;baseline-shift:baseline;color:#000000;fill:#ffffff;fill-opacity:1;stroke:none;stroke-width:1px;marker:none;visibility:visible;display:inline;overflow:visible;enable-background:accumulate;font-family:Sans;-inkscape-font-specification:Sans"
       d="m 15.5625,1020.3622 0,1.9063 -1.25,-1.1875 -0.6875,0.7187 1.9375,1.8125 0,1.2188 -3.09375,-2.25 -0.59375,0.8125 3.6875,2.6875 0,5.1875 -3.21875,-2.375 -0.25,0.3437 -0.65625,0.062 0.40625,3.9375 -4.46875,-2.6562 -0.53125,-4.125 -0.96875,0.1562 0.4375,3.3438 -1.09375,-0.6563 -0.4375,-2.4062 -0.96875,0.1562 0.28125,1.5938 -1.625,-0.9688 -0.5,0.875 1.59375,0.9688 -1.59375,0.4375 0.25,0.9687 2.53125,-0.7187 1.0625,0.625 -3.5,1.5 0.40625,0.9375 4.15625,-1.8125 4.46875,2.6562 -3.6875,1.5313 0.25,0.5937 -0.34375,0.8438 3.625,1.5625 -4.4375,2.625 -3.875,-1.5 -0.375,0.9375 3.15625,1.1875 -1.09375,0.6562 -2.3125,-0.7812 -0.3125,0.9375 1.5,0.5312 -1.59375,0.9375 0.5,0.875 1.625,-0.9687 -0.375,1.6562 0.96875,0.2188 0.59375,-2.5938 1.03125,-0.625 -0.34375,3.8125 1,0.094 0.40625,-4.5313 4.5,-2.6562 -0.40625,4 0.71875,0.062 0.21875,0.3125 3.21875,-2.375 0,5.1562 -3.6875,2.6875 0.59375,0.8125 3.09375,-2.25 0,1.25 -1.90625,1.8125 0.6875,0.7188 1.21875,-1.1563 0,1.875 1,0 0,-1.875 1.21875,1.0313 0.65625,-0.75 -1.875,-1.5938 0,-1.25 2.65625,2.0625 0.625,-0.7812 -3.28125,-2.5625 0,-5.1875 3.1875,2.375 0.34375,-0.4688 0.4375,-0.031 -0.40625,-4 4.5,2.6562 0.40625,4.5313 1,-0.094 -0.34375,-3.8125 1.03125,0.625 0.59375,2.5938 0.96875,-0.2188 -0.375,-1.6562 1.625,0.9687 0.5,-0.875 -1.59375,-0.9375 1.5,-0.5312 -0.3125,-0.9375 -2.3125,0.7812 -1.09375,-0.6562 3.15625,-1.1875 -0.375,-0.9375 -3.875,1.5 -4.4375,-2.625 3.625,-1.5625 -0.3125,-0.7188 0.21875,-0.4687 -3.6875,-1.5313 4.46875,-2.6562 4.15625,1.7812 0.40625,-0.9062 -3.53125,-1.5 1.0625,-0.625 2.5625,0.7187 0.25,-0.9687 -1.59375,-0.4375 1.59375,-0.9688 -0.5,-0.875 -1.625,0.9688 0.28125,-1.5938 -0.96875,-0.1562 -0.4375,2.4062 -1.09375,0.6563 0.4375,-3.3438 -0.96875,-0.1562 -0.53125,4.125 -4.46875,2.6562 0.40625,-3.9375 -0.28125,-0.031 -0.375,-0.5 -3.15625,2.3437 0,-5.1875 3.25,-2.5625 -0.625,-0.7812 -2.625,2.0625 0,-1.25 1.84375,-1.5625 -0.65625,-0.7813 -1.1875,1.0313 0,-1.8438 -1,0 z m -3,9.9375 3,2.2188 0,2.9375 -2.65625,-1.5938 -0.34375,-3.5625 z m 6.6875,0.1875 -0.34375,3.5 -2.34375,1.375 0,-2.875 2.6875,-2 z m -6.84375,4.2813 2.65625,1.5625 -2.78125,1.6562 -3.78125,-1.5937 3.90625,-1.625 z m 7,0.094 3.625,1.5313 -3.5,1.4687 -2.59375,-1.5312 2.46875,-1.4688 z m -3.90625,2.375 0,2.9688 -3.0625,2.2812 0.375,-3.6562 2.6875,-1.5938 z m 1,0 2.5,1.4688 0.375,3.6562 -2.875,-2.1562 0,-2.9688 z"
       id="path2989"
       inkscape:connector-curvature="0" />
  </g>
</svg>
