<?xml version="1.0" encoding="UTF-8" standalone="no"?>
<!-- Created with Inkscape (http://www.inkscape.org/) -->

<svg
   xmlns:dc="http://purl.org/dc/elements/1.1/"
   xmlns:cc="http://creativecommons.org/ns#"
   xmlns:rdf="http://www.w3.org/1999/02/22-rdf-syntax-ns#"
   xmlns:svg="http://www.w3.org/2000/svg"
   xmlns="http://www.w3.org/2000/svg"
   xmlns:sodipodi="http://sodipodi.sourceforge.net/DTD/sodipodi-0.dtd"
   xmlns:inkscape="http://www.inkscape.org/namespaces/inkscape"
   width="64"
   height="320"
   id="svg4303"
   version="1.1"
   inkscape:version="0.48.4 r9939"
   sodipodi:docname="icicle.svg"
   inkscape:export-filename="C:\Users\epearson\Documents\GitHub\snowflake-drift\assets\images\icicle.png"
   inkscape:export-xdpi="90"
   inkscape:export-ydpi="90">
  <defs
     id="defs4305" />
  <sodipodi:namedview
     id="base"
     pagecolor="#ffffff"
     bordercolor="#666666"
     borderopacity="1.0"
     inkscape:pageopacity="0.0"
     inkscape:pageshadow="2"
     inkscape:zoom="1.4"
     inkscape:cx="23.364937"
     inkscape:cy="155.59826"
     inkscape:document-units="px"
     inkscape:current-layer="layer1"
     showgrid="true"
     inkscape:window-width="1002"
     inkscape:window-height="760"
     inkscape:window-x="112"
     inkscape:window-y="216"
     inkscape:window-maximized="0">
    <inkscape:grid
       type="xygrid"
       id="grid4311"
       empspacing="4"
       visible="true"
       enabled="true"
       snapvisiblegridlinesonly="true" />
  </sodipodi:namedview>
  <metadata
     id="metadata4308">
    <rdf:RDF>
      <cc:Work
         rdf:about="">
        <dc:format>image/svg+xml</dc:format>
        <dc:type
           rdf:resource="http://purl.org/dc/dcmitype/StillImage" />
        <dc:title></dc:title>
      </cc:Work>
    </rdf:RDF>
  </metadata>
  <g
     inkscape:label="Layer 1"
     inkscape:groupmode="layer"
     id="layer1"
     transform="translate(0,-732.36218)">
    <path
       style="fill:#5fbcd3;stroke:none"
       d="m -0.19920396,732.70859 8.15694386,71.95242 8.1569441,30.83677 -8.1569441,92.51026 8.1569441,-20.55784 0,92.51026 8.156942,-10.27892 -8.156942,41.11576 8.156942,20.5577 16.313891,-20.5577 8.156943,-71.9525 0,-61.67352 8.156943,-10.27892 -8.156943,-71.95243 8.156943,10.27893 8.156943,-92.51027 z"
       id="path4313"
       inkscape:connector-curvature="0"
       sodipodi:nodetypes="cccccccccccccccc" />
    <path
       style="fill:#afdde9;stroke:none"
       d="m 65.056346,732.70859 c -8.156943,0 -24.470829,10.27891 -24.470829,10.27891 l 8.156943,10.27892 -8.156943,10.27892 8.156943,10.27892 -8.156943,20.55783 8.156943,0 -24.470834,10.27892 16.313891,20.55785 -8.156945,20.55784 8.156945,10.2789 0,30.83676 -8.156945,10.27892 8.156945,10.27892 -8.156945,20.55784 8.156945,0 -8.156945,20.55784 8.156945,20.55784 0,20.55782 -8.156945,30.83686 0,10.2789 8.156945,-10.2789 6.117707,-61.6736 -2.039238,-51.3946 4.078474,-20.55784 4.078472,-10.27892 -6.117708,-59.10377 8.156943,-12.84866 4.078472,-20.55783 -2.039236,-30.83676 z"
       id="path4315"
       inkscape:connector-curvature="0"
       sodipodi:nodetypes="ccccccccccccccccccccccccccccccc" />
    <path
       style="fill:none;stroke:#87cdde;stroke-width:2.28916693px;stroke-linecap:butt;stroke-linejoin:miter;stroke-opacity:1"
       d="m 7.9577399,742.9875 0,20.55784 8.1569441,10.27892 0,20.55783 0,30.83677 8.156942,10.27892 -8.156942,61.6735 8.156942,-7.70919 -2.039233,46.25514 -2.039236,46.25512 10.196179,-2.56972 -10.196179,48.82497"
       id="path4317"
       inkscape:connector-curvature="0"
       sodipodi:nodetypes="cccccccccccc" />
  </g>
</svg>
