<?xml version="1.0" encoding="UTF-8" standalone="no"?>
<!-- Created with Inkscape (http://www.inkscape.org/) -->

<svg
   xmlns:dc="http://purl.org/dc/elements/1.1/"
   xmlns:cc="http://creativecommons.org/ns#"
   xmlns:rdf="http://www.w3.org/1999/02/22-rdf-syntax-ns#"
   xmlns:svg="http://www.w3.org/2000/svg"
   xmlns="http://www.w3.org/2000/svg"
   xmlns:sodipodi="http://sodipodi.sourceforge.net/DTD/sodipodi-0.dtd"
   xmlns:inkscape="http://www.inkscape.org/namespaces/inkscape"
   width="320"
   height="480"
   id="svg4319"
   version="1.1"
   inkscape:version="0.48.4 r9939"
   sodipodi:docname="backgroundhills.svg"
   inkscape:export-filename="C:\Users\epearson\Documents\GitHub\snowflake-drift\assets\images\backgroundhills.png"
   inkscape:export-xdpi="90"
   inkscape:export-ydpi="90">
  <defs
     id="defs4321" />
  <sodipodi:namedview
     id="base"
     pagecolor="#ffffff"
     bordercolor="#666666"
     borderopacity="1.0"
     inkscape:pageopacity="0.0"
     inkscape:pageshadow="2"
     inkscape:zoom="0.98994949"
     inkscape:cx="156.07148"
     inkscape:cy="205.92305"
     inkscape:document-units="px"
     inkscape:current-layer="layer1"
     showgrid="true"
     inkscape:snap-grids="true"
     inkscape:window-width="1118"
     inkscape:window-height="739"
     inkscape:window-x="62"
     inkscape:window-y="206"
     inkscape:window-maximized="0">
    <inkscape:grid
       type="xygrid"
       id="grid4327"
       empspacing="16"
       visible="true"
       enabled="true"
       snapvisiblegridlinesonly="true" />
  </sodipodi:namedview>
  <metadata
     id="metadata4324">
    <rdf:RDF>
      <cc:Work
         rdf:about="">
        <dc:format>image/svg+xml</dc:format>
        <dc:type
           rdf:resource="http://purl.org/dc/dcmitype/StillImage" />
        <dc:title></dc:title>
      </cc:Work>
    </rdf:RDF>
  </metadata>
  <g
     inkscape:label="Layer 1"
     inkscape:groupmode="layer"
     id="layer1"
     transform="translate(0,-572.36218)">
    <path
       style="fill:#e1e5dd;fill-opacity:1;stroke:none"
       d="m 0,480 0,-80 c 0,-32.28672 0,-64.28672 32,-64.28672 32,0 32,32 32,64.03418 L 64,480 64,367.71328 c 0,-48 16,-96 64,-96 48,0 64,48 64,96 L 192,480 l 0,-14.84516 c 0,-33.44156 16,-65.44156 48,-65.44156 32,0 48,32 48,65.44156 L 288,480 l 0,-31.51268 c 0,-16.77404 0,-48.77404 16.56099,-48.77404 15.43901,0 15.43901,32 15.43901,48 L 320,480 z"
       id="path4329"
       inkscape:connector-curvature="0"
       transform="translate(0,572.36218)"
       sodipodi:nodetypes="cccccccccccccccccc" />
  </g>
</svg>
